# xmcd CD database file
#
# Track frame offsets:
#	192
#	18035
#	33112
#	54065
#	75037
#	94350
#	117247
#	135140
#	157545
#	174922
#	193480
#	223567
#	249765
#	265390
#	288825
#	306117
#	311787
#
# Disc length: 4442 seconds
#
# Revision: 1
# Processed by: cddbd v1.4PL0 Copyright (c) Steve Scherf et al.
# Submitted via: CDex 1.50beta10
#
DISCID=c6115811
DTITLE=Morbid Angel - Blessed are the boots
DYEAR=1991
DGENRE=Death Metal
TTITLE0=Immortal Rites
TTITLE1=Suffocation
TTITLE2=Visions From The Dark Side
TTITLE3=Damnation
TTITLE4=Thy Kingdom Come
TTITLE5=Desolate ways
TTITLE6=The gate
TTITLE7=Maze Of Torment
TTITLE8=We shall rise
TTITLE9=Unholy Blasphemies
TTITLE10=Chapel Of Ghouls
TTITLE11=Welcome to hell
TTITLE12=Bleed For The Devil
TTITLE13=Fall From Grace
TTITLE14=Blessed Are The Sick
TTITLE15=The Invocation
TTITLE16=Burial
EXTD=YEAR: 1991
EXTT0=
EXTT1=
EXTT2=
EXTT3=
EXTT4=
EXTT5=
EXTT6=
EXTT7=
EXTT8=
EXTT9=
EXTT10=
EXTT11=
EXTT12=
EXTT13=
EXTT14=
EXTT15=
EXTT16=
PLAYORDER=
